<svg width="337" height="308" viewBox="0 0 337 308" fill="none" xmlns="http://www.w3.org/2000/svg">
<rect x="7.5" y="7.5" width="322" height="293" rx="37.5" fill="#FEFEFE" stroke="white" stroke-width="15"/>
<path d="M161.5 24.5L159.596 24.0723L54.0961 247.072L54 247.275V247.5V264.5L55.9001 264.936L161.4 46.9356L161.5 46.7293V46.5V24.5Z" fill="black" stroke="black" stroke-width="2"/>
<path d="M174 24L175.915 23.5961L290.915 284.096L292.459 287.594L289.4 285.3L287.4 283.8L287.204 283.653L287.098 283.431L174.098 46.9311L174 46.7266V46.5V24Z" fill="black" stroke="black" stroke-width="2"/>
<path d="M166 67L167.91 66.5853L255.298 258.34L289.579 282.685L288.481 284.355L234.981 251.855L234.716 251.694L234.589 251.412L166.089 99.912L166 99.7156V99.5V67Z" fill="black" stroke="black" stroke-width="2"/>
<path d="M168 67L166.092 66.5819L122.592 161.082L121.84 162.715L123.624 162.492L139.624 160.492L140.177 160.423L140.409 159.917L167.909 99.9167L168 99.7183V99.5V67Z" fill="black" stroke="black" stroke-width="2"/>
<path d="M86.9241 213.762L86.8296 213.792L86.7815 213.879L81.7815 222.879L81.462 223.454L82.0827 223.236L313.076 142.238L313.083 142.236L312.961 141.753L134.461 170.253L134.404 170.262L134.357 170.295L112.88 185.279L19.9065 222.768L20.0666 223.241L300.616 145.683L86.9241 213.762Z" fill="black" stroke="black" stroke-width="0.5"/>
</svg>
